<svg width="89" height="89" viewBox="0 0 89 89" fill="none" xmlns="http://www.w3.org/2000/svg">
<circle cx="44.5" cy="44.5" r="44.5" fill="url(#paint0_linear_1_2646)"/>
<g clip-path="url(#clip0_1_2646)">
<path d="M44.4996 66.75C43.5161 66.75 42.5729 66.3593 41.8774 65.6639C41.182 64.9684 40.7913 64.0252 40.7913 63.0417V25.9583C40.7913 24.9748 41.182 24.0316 41.8774 23.3361C42.5729 22.6407 43.5161 22.25 44.4996 22.25C45.4831 22.25 46.4263 22.6407 47.1218 23.3361C47.8172 24.0316 48.2079 24.9748 48.2079 25.9583V63.0417C48.2079 64.0252 47.8172 64.9684 47.1218 65.6639C46.4263 66.3593 45.4831 66.75 44.4996 66.75Z" fill="white"/>
<path d="M29.6665 59.3333C28.683 59.3333 27.7397 58.9426 27.0443 58.2472C26.3488 57.5517 25.9581 56.6085 25.9581 55.625V33.375C25.9581 32.3915 26.3488 31.4482 27.0443 30.7528C27.7397 30.0573 28.683 29.6666 29.6665 29.6666C30.65 29.6666 31.5932 30.0573 32.2887 30.7528C32.9841 31.4482 33.3748 32.3915 33.3748 33.375V55.625C33.3748 56.6085 32.9841 57.5517 32.2887 58.2472C31.5932 58.9426 30.65 59.3333 29.6665 59.3333Z" fill="white"/>
<path d="M59.3333 51.9167C58.3498 51.9167 57.4066 51.526 56.7111 50.8305C56.0157 50.1351 55.625 49.1919 55.625 48.2084V40.7917C55.625 39.8082 56.0157 38.865 56.7111 38.1695C57.4066 37.4741 58.3498 37.0834 59.3333 37.0834C60.3168 37.0834 61.2601 37.4741 61.9555 38.1695C62.651 38.865 63.0417 39.8082 63.0417 40.7917V48.2084C63.0417 49.1919 62.651 50.1351 61.9555 50.8305C61.2601 51.526 60.3168 51.9167 59.3333 51.9167Z" fill="white"/>
</g>
<defs>
<linearGradient id="paint0_linear_1_2646" x1="22.25" y1="13.9063" x2="55.2245" y2="79.4587" gradientUnits="userSpaceOnUse">
<stop stop-color="#9F42FC"/>
<stop offset="1" stop-color="#0B90F0"/>
</linearGradient>
<clipPath id="clip0_1_2646">
<rect width="44.5" height="44.5" fill="white" transform="translate(22.25 22.25)"/>
</clipPath>
</defs>
</svg>
